<?xml version="1.0" standalone="no"?>
<!DOCTYPE svg PUBLIC "-//W3C//DTD SVG 20010904//EN"
 "http://www.w3.org/TR/2001/REC-SVG-20010904/DTD/svg10.dtd">
<svg version="1.0" xmlns="http://www.w3.org/2000/svg"
 width="512.000000pt" height="512.000000pt" viewBox="0 0 512.000000 512.000000"
 preserveAspectRatio="xMidYMid meet">

<g transform="translate(0.000000,512.000000) scale(0.100000,-0.100000)"
fill="#000000" stroke="none">
<path d="M2846 4579 c-521 -55 -1040 -342 -1360 -751 l-59 -76 -91 -17 c-651
-118 -1181 -668 -1281 -1330 -19 -130 -19 -350 1 -483 19 -128 72 -309 124
-419 l38 -82 -109 -358 c-60 -197 -109 -371 -109 -388 1 -73 76 -145 151 -145
20 0 193 47 384 105 191 58 353 105 360 105 7 0 50 -18 96 -39 191 -89 406
-134 644 -134 223 0 403 33 601 113 l72 28 115 -38 c478 -162 1027 -131 1491
84 l99 46 462 -140 c254 -77 476 -140 494 -140 75 0 151 74 151 146 0 16 -63
238 -141 493 l-140 464 49 111 c123 277 171 484 179 777 8 270 -19 467 -97
700 -201 601 -673 1074 -1270 1272 -278 93 -572 126 -854 96z m539 -329 c757
-150 1326 -794 1373 -1553 20 -321 -38 -610 -179 -891 -41 -83 -59 -131 -59
-157 0 -21 47 -195 105 -385 58 -191 103 -349 101 -352 -3 -2 -162 44 -355
102 -192 58 -364 106 -381 106 -18 0 -87 -27 -163 -64 -364 -177 -736 -225
-1115 -146 -591 124 -1080 561 -1267 1135 -67 204 -80 294 -80 545 1 183 4
230 23 318 160 736 724 1258 1472 1362 114 16 401 5 525 -20z m-2178 -887 c-3
-10 -22 -63 -42 -118 -210 -581 -129 -1254 214 -1770 126 -191 310 -386 474
-505 42 -30 76 -58 76 -61 2 -15 -174 -34 -304 -34 -210 1 -376 41 -568 136
-70 35 -111 49 -140 49 -24 0 -147 -31 -280 -72 -130 -39 -239 -69 -242 -66
-3 2 29 116 70 253 41 136 75 257 75 270 0 12 -22 67 -49 121 -102 210 -142
378 -143 599 0 207 35 367 121 550 128 275 369 509 648 631 90 39 97 40 90 17z"/>
<path d="M2292 3283 c-116 -57 -114 -222 3 -274 42 -19 71 -19 782 -17 l738 3
34 24 c44 32 75 101 66 150 -9 47 -49 100 -91 117 -28 12 -162 14 -766 14
-656 0 -736 -2 -766 -17z"/>
<path d="M2294 2716 c-60 -26 -99 -104 -85 -169 12 -51 38 -84 85 -107 41 -20
57 -20 767 -20 l725 0 44 23 c88 44 114 156 53 228 -52 62 -12 59 -820 59
-595 -1 -744 -3 -769 -14z"/>
<path d="M2283 2140 c-57 -35 -87 -102 -73 -166 11 -47 64 -102 112 -115 24
-6 217 -9 525 -7 482 3 488 3 523 25 48 30 74 77 74 135 0 54 -21 89 -74 126
l-33 22 -511 0 c-489 0 -512 -1 -543 -20z"/>
</g>
</svg>
