<?xml version="1.0" standalone="no"?>
<!DOCTYPE svg PUBLIC "-//W3C//DTD SVG 20010904//EN"
 "http://www.w3.org/TR/2001/REC-SVG-20010904/DTD/svg10.dtd">
<svg version="1.0" xmlns="http://www.w3.org/2000/svg"
 width="512.000000pt" height="512.000000pt" viewBox="0 0 512.000000 512.000000"
 preserveAspectRatio="xMidYMid meet">

<g transform="translate(0.000000,512.000000) scale(0.100000,-0.100000)"
fill="#000000" stroke="none">
<path d="M2508 5093 c-19 -16 -235 -221 -481 -456 -437 -420 -447 -430 -447
-467 0 -68 8 -70 302 -70 l257 0 3 -606 3 -606 24 -19 c22 -18 44 -19 388 -19
227 0 371 4 383 10 11 6 24 27 30 48 6 23 10 246 10 615 l0 577 258 0 c294 0
302 2 302 70 0 38 -9 47 -452 472 -248 238 -465 443 -482 456 -39 29 -56 28
-98 -5z"/>
<path d="M1060 2875 c-110 -31 -199 -107 -248 -213 l-27 -57 0 -325 0 -325 32
-67 c38 -81 102 -146 181 -185 l57 -28 1505 0 1505 0 57 28 c79 39 143 104
181 185 l32 67 0 325 0 325 -33 67 c-67 136 -187 211 -337 211 -104 0 -176
-27 -250 -94 -82 -75 -116 -153 -123 -274 l-5 -95 -1027 0 -1027 0 -5 95 c-4
80 -10 105 -37 159 -79 160 -265 247 -431 201z"/>
<path d="M104 1079 c-41 -12 -91 -69 -99 -111 -4 -18 -5 -175 -3 -348 l3 -315
33 -67 c39 -81 106 -144 200 -190 64 -31 72 -33 182 -33 109 0 119 2 183 32
81 39 172 125 207 198 25 50 25 53 28 375 2 179 0 339 -3 357 -8 43 -57 90
-107 104 -55 14 -118 -9 -156 -59 l-27 -35 -3 -296 c-1 -163 -4 -306 -7 -318
-7 -31 -65 -63 -115 -63 -34 0 -82 19 -112 43 -1 1 -5 145 -8 319 -5 300 -6
318 -26 344 -44 59 -107 83 -170 63z"/>
<path d="M1026 1080 c-16 -5 -40 -19 -53 -32 -54 -50 -53 -45 -53 -505 0 -409
1 -429 20 -461 61 -100 211 -95 262 8 14 27 18 60 18 146 l0 112 88 4 c63 3
100 11 135 28 75 35 142 103 179 178 30 60 33 75 33 157 0 118 -31 191 -116
269 -89 82 -139 98 -329 102 -85 2 -168 -1 -184 -6z m316 -320 c44 -54 8 -110
-72 -110 l-50 0 0 71 0 72 52 -5 c38 -4 57 -12 70 -28z"/>
<path d="M1818 1070 c-23 -12 -46 -36 -58 -60 -19 -37 -20 -58 -20 -457 0
-389 2 -421 19 -460 33 -72 69 -83 268 -83 140 0 174 3 203 18 107 53 107 211
0 264 -24 13 -59 18 -112 18 l-78 0 0 331 c0 365 -2 378 -63 421 -42 30 -112
34 -159 8z"/>
<path d="M2750 1080 c-214 -32 -384 -181 -447 -394 -21 -70 -20 -207 1 -281
54 -184 194 -326 375 -379 72 -21 220 -21 292 0 178 52 321 195 373 373 21 72
21 220 0 292 -76 258 -334 427 -594 389z m180 -320 c84 -43 130 -119 130 -215
0 -137 -98 -235 -235 -235 -241 0 -331 313 -125 437 29 18 64 34 79 36 42 7
113 -3 151 -23z"/>
<path d="M3765 1083 c-47 -12 -86 -37 -105 -67 -11 -18 -87 -210 -170 -427
-160 -421 -169 -455 -131 -513 30 -44 70 -66 125 -66 62 0 109 28 133 80 l18
39 157 1 158 0 20 -40 c28 -54 72 -80 137 -80 41 0 58 5 83 26 39 34 60 74 60
118 0 35 -282 797 -317 857 -31 52 -111 87 -168 72z m61 -627 c6 -24 4 -26
-30 -26 -41 0 -43 6 -19 69 l17 45 13 -31 c6 -17 15 -42 19 -57z"/>
<path d="M4382 1043 c-18 -9 -43 -30 -55 -47 -22 -31 -22 -33 -22 -463 0 -420
1 -432 21 -459 46 -62 65 -69 199 -72 232 -6 344 28 449 137 232 244 175 729
-103 870 -76 39 -147 51 -306 51 -118 0 -157 -4 -183 -17z m363 -307 c46 -30
70 -98 70 -201 0 -76 -4 -98 -25 -139 -32 -64 -63 -86 -133 -93 l-57 -6 0 233
0 232 59 -4 c33 -2 71 -12 86 -22z"/>
</g>
</svg>
