<?xml version="1.0" standalone="no"?>
<!DOCTYPE svg PUBLIC "-//W3C//DTD SVG 20010904//EN"
 "http://www.w3.org/TR/2001/REC-SVG-20010904/DTD/svg10.dtd">
<svg version="1.0" xmlns="http://www.w3.org/2000/svg"
 width="880.000000pt" height="871.000000pt" viewBox="0 0 880.000000 871.000000"
 preserveAspectRatio="xMidYMid meet">

<g transform="translate(0.000000,871.000000) scale(0.100000,-0.100000)"
fill="#424549" stroke="none">
<path d="M4342 8280 c-96 -26 -216 -89 -289 -153 -33 -29 -503 -464 -1044
-967 l-984 -915 -550 -5 c-540 -6 -551 -6 -620 -29 -173 -57 -310 -172 -384
-322 -75 -152 -72 -90 -69 -1392 l3 -1162 27 -73 c70 -192 201 -325 396 -401
l67 -26 561 -5 561 -5 174 -161 c96 -89 561 -520 1034 -959 597 -552 880 -808
925 -836 276 -165 640 -125 878 96 115 106 181 224 213 380 18 87 19 200 19
3193 0 2798 -2 3110 -16 3180 -32 156 -102 281 -214 385 -84 77 -158 122 -263
160 -72 26 -98 30 -217 33 -111 3 -148 1 -208 -16z m255 -560 c35 -16 83 -50
107 -74 84 -87 76 209 82 -2991 4 -1963 3 -2879 -5 -2943 -12 -107 -40 -179
-96 -241 -48 -52 -163 -111 -219 -111 -81 1 -220 77 -356 196 -61 54 -620 570
-1480 1367 -206 192 -388 356 -405 365 -27 15 -83 17 -590 17 l-560 0 -51 23
c-64 29 -116 82 -145 147 l-23 50 0 1010 -1 1010 28 57 c31 64 88 115 155 141
38 15 105 17 590 18 398 0 556 3 579 12 19 7 166 135 340 297 169 157 486 450
703 651 217 201 501 463 630 583 319 296 470 408 588 435 57 14 63 13 129 -19z"/>
<path d="M6770 7668 c-60 -31 -90 -77 -90 -140 0 -68 17 -95 113 -176 118
-100 366 -357 470 -487 662 -823 938 -1888 762 -2941 -141 -843 -568 -1608
-1213 -2170 -96 -84 -121 -120 -122 -177 -1 -116 119 -196 222 -149 54 25 238
191 385 348 650 693 1025 1548 1092 2486 73 1012 -241 2012 -884 2813 -157
195 -483 523 -584 587 -47 30 -100 32 -151 6z"/>
<path d="M5842 6303 c-18 -9 -42 -29 -54 -46 -26 -36 -35 -116 -18 -156 7 -17
61 -73 120 -125 288 -253 502 -604 593 -971 46 -183 52 -239 52 -475 0 -265
-17 -374 -90 -598 -105 -318 -275 -581 -534 -822 -60 -57 -115 -116 -122 -132
-16 -39 -6 -119 19 -155 47 -66 149 -83 218 -37 196 133 468 470 603 748 378
778 298 1656 -217 2350 -86 116 -324 359 -396 405 -57 36 -120 41 -174 14z"/>
</g>
</svg>
