<?xml version="1.0" standalone="no"?>
<!DOCTYPE svg PUBLIC "-//W3C//DTD SVG 20010904//EN"
 "http://www.w3.org/TR/2001/REC-SVG-20010904/DTD/svg10.dtd">
<svg version="1.0" xmlns="http://www.w3.org/2000/svg"
 width="512.000000pt" height="512.000000pt" viewBox="0 0 512.000000 512.000000"
 preserveAspectRatio="xMidYMid meet">

<g transform="translate(0.000000,512.000000) scale(0.100000,-0.100000)"
fill="#000000" stroke="none">
<path d="M2119 5106 c-114 -32 -227 -127 -274 -228 -18 -39 -265 -929 -265
-954 0 -2 -214 -4 -475 -4 -313 0 -492 -4 -527 -11 -128 -27 -242 -117 -300
-236 -32 -65 -33 -73 -33 -183 0 -103 3 -121 26 -170 51 -106 137 -188 247
-232 55 -22 69 -23 443 -28 l386 -5 -103 -384 c-57 -212 -107 -388 -111 -392
-5 -5 -161 -9 -348 -11 l-340 -3 -68 -32 c-89 -42 -168 -121 -210 -210 -30
-64 -32 -75 -32 -178 0 -103 2 -114 32 -178 42 -89 121 -168 210 -210 l68 -32
228 -3 c190 -3 227 -6 227 -18 0 -8 -40 -166 -90 -352 -100 -374 -106 -419
-70 -534 46 -148 176 -260 338 -290 171 -32 364 65 446 223 17 33 75 230 149
509 l122 455 368 3 c290 2 367 0 367 -10 0 -7 -53 -206 -117 -443 -115 -424
-117 -432 -117 -540 -1 -105 1 -113 32 -178 89 -182 290 -280 481 -236 113 26
228 113 283 214 16 32 81 254 173 600 81 303 151 560 156 572 l8 22 578 3 578
3 69 34 c326 160 326 612 0 772 l-69 34 -462 3 c-354 2 -463 6 -463 15 0 7 46
184 102 395 l102 382 371 0 c394 0 435 4 527 51 54 27 141 110 172 163 121
208 40 489 -174 596 -87 43 -140 50 -410 50 -175 0 -250 3 -250 11 0 6 27 111
59 232 69 258 74 292 61 371 -30 186 -173 326 -363 358 -169 28 -353 -65 -435
-220 -20 -37 -62 -176 -123 -404 l-92 -348 -369 0 c-202 0 -368 3 -368 6 0 4
40 158 90 343 49 185 92 359 96 387 18 146 -80 334 -213 407 -99 53 -225 70
-324 43z m851 -2058 c0 -14 -200 -759 -206 -770 -7 -10 -734 -10 -734 0 -1 4
45 181 102 394 l103 388 368 0 c274 0 367 -3 367 -12z"/>
</g>
</svg>
